#!OML:ASF H:\Terrain\Patient Classification 1\Walking\liu\liu.ASF
:FULLY-SPECIFIED
:DEGREES
65
root 9.991883 17.937260 -30.054310 5.719879 -12.969220 0.949709
lowerback -5.415047 0.451640 -2.841399
upperback -2.516195 0.698644 2.700390
thorax 0.383478 0.379749 4.415840
lowerneck -24.706219 -4.319084 -12.767810
upperneck 19.752150 -5.013107 14.084180
head 10.995556 -1.598762 6.404244
rclavicle -0.000000 -0.000000
rhumerus -47.566750 14.364130 -99.939514
rradius 41.883598
rwrist -21.540310
rhand -32.778679 -28.747181
rfingers 7.837522
rthumb -3.435465 -61.699768
lclavicle -0.000000 -0.000000
lhumerus -43.028259 -6.821056 97.554268
lradius 23.154449
lwrist -3.584504
lhand 0.926000 -19.349110
lfingers 7.837522
lthumb 29.036041 11.651530
rfemur -4.678278 -0.822955 16.930429
rtibia 63.056622
rfoot 7.000169 -11.553960
rtoes -4.684240
lfemur -29.292120 8.450376 -26.625830
ltibia 35.486771
lfoot -11.478280 8.542105
ltoes -3.822434
66
root 10.013662 17.968060 -29.925280 5.742539 -12.762200 0.679186
lowerback -5.489330 0.348102 -2.479851
upperback -2.403698 0.543679 2.792944
thorax 0.557425 0.295402 4.300681
lowerneck -24.592701 -4.440887 -12.756260
upperneck 19.452291 -5.152356 13.998270
head 10.885984 -1.675707 6.336407
rclavicle 0.000000 -0.000000
rhumerus -47.350819 14.188680 -99.681892
rradius 41.920670
rwrist -21.652840
rhand -32.817513 -28.198940
rfingers 7.837522
rthumb -3.472986 -61.150871
lclavicle 0.000000 -0.000000
lhumerus -42.164543 -6.532416 97.147820
lradius 23.277319
lwrist -4.199140
lhand 0.739265 -19.482651
lfingers 7.837522
lthumb 28.857290 11.544721
rfemur -6.011654 -0.910768 17.505180
rtibia 64.370239
rfoot 5.534573 -11.825991
rtoes -2.514314
lfemur -28.429720 8.100752 -26.417490
ltibia 34.807301
lfoot -11.331651 8.768749
ltoes -4.805064
67
root 10.031384 17.989401 -29.810329 5.784636 -12.467510 0.636525
lowerback -5.633727 0.217181 -2.412498
upperback -2.225245 0.365792 2.833281
thorax 0.836902 0.198871 4.297128
lowerneck -24.823151 -4.480014 -12.696970
upperneck 19.426991 -5.156316 13.817320
head 10.912055 -1.686344 6.258582
rclavicle -0.000000 0.000000
rhumerus -47.065590 14.215301 -99.501381
rradius 42.045849
rwrist -21.848200
rhand -32.808052 -28.236891
rfingers 7.837522
rthumb -3.463856 -61.189041
lclavicle -0.000000 0.000000
lhumerus -41.227669 -7.674645 97.442398
lradius 23.567282
lwrist -3.353537
lhand 0.558346 -19.100180
lfingers 7.837522
lthumb 28.684151 11.952821
rfemur -7.481210 -1.088117 17.893589
rtibia 65.582443
rfoot 4.262346 -11.747670
rtoes -2.878777
lfemur -27.709551 7.800309 -26.457310
ltibia 34.158848
lfoot -11.241120 8.835091
ltoes -4.509945
68
root 10.050458 18.008871 -29.685591 5.866047 -12.093290 0.955846
lowerback -5.801950 0.049401 -2.740364
upperback -2.237400 0.160812 2.804021
thorax 0.934050 0.095848 4.442152
lowerneck -24.881889 -4.349345 -12.774079
upperneck 19.648748 -4.978853 13.894979
head 10.980223 -1.599191 6.337100
rclavicle -0.000000 -0.000000
rhumerus -47.107059 14.221020 -99.374771
rradius 42.207989
rwrist -21.929270
rhand -33.001980 -28.812410
rfingers 7.837522
rthumb -3.651164 -61.761810
lclavicle -0.000000 -0.000000
lhumerus -40.620251 -9.008185 97.889107
lradius 23.798941
lwrist -2.034197
lhand -0.001000 -19.317320
lfingers 7.837522
lthumb 28.148451 11.813670
rfemur -8.940074 -1.388508 17.839470
rtibia 66.662643
rfoot 3.031050 -11.264550
rtoes -5.012425
lfemur -27.067039 7.383981 -26.927450
ltibia 33.572769
lfoot -11.271700 8.863130
ltoes -4.636423
69
root 10.069664 18.032080 -29.557440 5.931794 -11.666161 1.175504
lowerback -5.872581 -0.127023 -2.917849
upperback -2.312343 -0.063291 2.755995
thorax 0.915872 -0.014366 4.479772
lowerneck -24.882219 -4.259420 -12.731620
upperneck 19.953230 -4.903734 13.932159
head 11.077551 -1.557336 6.366921
rclavicle -0.000000 -0.000000
rhumerus -47.262932 14.043921 -99.233414
rradius 42.484203
rwrist -21.906830
rhand -33.073372 -28.738050
rfingers 7.837522
rthumb -3.720079 -61.686241
lclavicle -0.000000 -0.000000
lhumerus -39.895462 -9.399291 97.717400
lradius 23.779579
lwrist -2.124705
lhand -0.473368 -20.146830
lfingers 7.837522
lthumb 27.695911 11.048510
rfemur -10.314909 -1.596034 17.933960
rtibia 67.586639
rfoot 1.307361 -11.025960
rtoes -7.034313
lfemur -26.464460 6.926381 -27.288469
ltibia 33.056980
lfoot -11.341990 8.946564
ltoes -5.399130
70
root 10.090388 18.046379 -29.438969 5.779884 -11.280169 1.078745
lowerback -5.700508 -0.246199 -2.703646
upperback -2.210758 -0.235694 2.750748
thorax 0.939852 -0.103360 4.342239
lowerneck -25.100351 -4.273819 -12.703790
upperneck 20.341089 -4.956369 13.978470
head 11.263560 -1.567731 6.388228
rclavicle -0.000000 -0.000000
rhumerus -47.180763 13.912251 -99.121109
rradius 42.620049
rwrist -22.138380
rhand -33.339241 -27.226980
rfingers 7.837522
rthumb -3.976830 -60.170990
lclavicle -0.000000 -0.000000
lhumerus -38.901062 -9.854306 97.470558
lradius 23.816319
lwrist -2.409726
lhand -0.744669 -20.084789
lfingers 7.837522
lthumb 27.435980 11.146851
rfemur -11.483010 -1.607397 18.430281
rtibia 68.396126
rfoot -0.646707 -11.599279
rtoes -9.329287
lfemur -25.652441 6.461048 -27.240841
ltibia 32.607300
lfoot -11.542630 9.107626
ltoes -5.735994
71
root 10.110539 18.057159 -29.313570 5.597878 -11.143880 0.977115
lowerback -5.584304 -0.281084 -2.555938
upperback -2.091562 -0.292901 2.842114
thorax 1.002678 -0.135049 4.350005
lowerneck -24.924572 -4.362875 -12.980000
upperneck 20.261890 -5.057074 14.217170
head 11.231660 -1.612754 6.505697
rclavicle 0.000000 0.000000
rhumerus -47.113438 13.980670 -98.931252
rradius 42.572971
rwrist -22.508421
rhand -33.585640 -25.802370
rfingers 7.837522
rthumb -4.214749 -58.742199
lclavicle 0.000000 0.000000
lhumerus -38.088821 -10.151010 97.405991
lradius 24.193621
lwrist -2.404666
lhand -0.655187 -19.381231
lfingers 7.837522
lthumb 27.521669 11.838421
rfemur -12.561230 -1.347775 18.856201
rtibia 69.080551
rfoot -2.944931 -11.930490
rtoes -10.634459
lfemur -24.779261 6.202240 -27.200911
ltibia 32.274330
lfoot -11.930270 9.281008
ltoes -5.718218
72
root 10.121133 18.066401 -29.199501 5.736412 -10.944823 1.262382
lowerback -5.676935 -0.402636 -2.954699
upperback -2.206281 -0.434040 2.874267
thorax 0.950401 -0.201831 4.601498
lowerneck -24.684660 -4.355208 -12.989790
upperneck 20.226580 -5.052806 14.161070
head 11.172920 -1.625415 6.483378
rclavicle -0.000000 -0.000000
rhumerus -47.402081 14.113660 -98.799477
rradius 42.848961
rwrist -22.777809
rhand -33.430321 -25.346750
rfingers 7.837522
rthumb -4.064709 -58.289219
lclavicle -0.000000 -0.000000
lhumerus -37.543442 -10.280149 97.297638
lradius 24.734491
lwrist -2.373404
lhand -0.497011 -18.983799
lfingers 7.837522
lthumb 27.673250 12.214621
rfemur -14.095510 -1.169069 18.898659
rtibia 69.643967
rfoot -4.646081 -11.792001
rtoes -11.421301
lfemur -24.376881 6.076818 -27.628809
ltibia 31.956430
lfoot -12.182720 9.280282
ltoes -5.406181
73
root 10.130912 18.067169 -29.093571 5.859623 -10.543995 1.546985
lowerback -5.723916 -0.561233 -3.279485
upperback -2.293104 -0.627891 2.839760
thorax 0.907215 -0.295583 4.738547
lowerneck -24.565750 -4.279594 -12.675740
upperneck 20.282240 -4.983407 13.800270
head 11.142450 -1.614921 6.305255
rclavicle -0.000000 0.000000
rhumerus -47.642101 14.115420 -98.726212
rradius 43.258709
rwrist -23.073601
rhand -33.366299 -24.823040
rfingers 7.837522
rthumb -4.002944 -57.766499
lclavicle -0.000000 0.000000
lhumerus -36.825027 -10.902596 97.241211
lradius 25.102549
lwrist -1.998986
lhand -0.571087 -18.793390
lfingers 7.837522
lthumb 27.602301 12.414929
rfemur -15.650140 -1.218547 18.996010
rtibia 70.021713
rfoot -5.821838 -11.895070
rtoes -12.649230
lfemur -23.964710 5.863209 -28.045271
ltibia 31.573299
lfoot -12.382370 9.198794
ltoes -5.273235
